<svg xmlns="http://www.w3.org/2000/svg" viewBox="0 0 220 220" role="img" aria-labelledby="title desc">
  <title id="title">Fantasy IQ</title>
  <desc id="desc">Fantasy IQ football shield logo</desc>
  <defs>
    <linearGradient id="field" x1="0" x2="1" y1="0" y2="1">
      <stop offset="0" stop-color="#123f34"/>
      <stop offset="1" stop-color="#061a15"/>
    </linearGradient>
    <linearGradient id="gold" x1="0" x2="1" y1="0" y2="1">
      <stop offset="0" stop-color="#fff1bd"/>
      <stop offset="0.48" stop-color="#f3d071"/>
      <stop offset="1" stop-color="#b88735"/>
    </linearGradient>
  </defs>
  <circle cx="110" cy="110" r="104" fill="#fff1bd"/>
  <circle cx="110" cy="110" r="96" fill="#071d18"/>
  <path d="M110 24 184 54v58c0 44-29 73-74 93-45-20-74-49-74-93V54z" fill="url(#field)" stroke="url(#gold)" stroke-width="8"/>
  <path d="M58 92h104M58 128h104" stroke="#fff1bd" stroke-width="2" opacity=".35"/>
  <path d="M110 42c28 13 44 30 44 49s-16 36-44 49c-28-13-44-30-44-49s16-36 44-49z" fill="#8a4f24" stroke="#27130a" stroke-width="5"/>
  <path d="M72 91h76M110 58v66M96 76v31M110 72v39M124 76v31" stroke="#fff1bd" stroke-width="5" stroke-linecap="round"/>
  <text x="110" y="158" text-anchor="middle" font-family="Inter, Arial, sans-serif" font-size="42" font-weight="900" fill="url(#gold)" stroke="#3b2115" stroke-width="2">IQ</text>
  <text x="110" y="184" text-anchor="middle" font-family="Inter, Arial, sans-serif" font-size="18" font-weight="900" fill="#fff1bd">FANTASY</text>
</svg>
